<?xml version="1.0" standalone="no"?>
<!DOCTYPE svg PUBLIC "-//W3C//DTD SVG 20010904//EN"
 "http://www.w3.org/TR/2001/REC-SVG-20010904/DTD/svg10.dtd">
<svg version="1.0" xmlns="http://www.w3.org/2000/svg"
 width="48.000000pt" height="48.000000pt" viewBox="0 0 48.000000 48.000000"
 preserveAspectRatio="xMidYMid meet">

<g transform="translate(0.000000,48.000000) scale(0.100000,-0.100000)"
fill="#cd2929" stroke="none">
<path d="M181 425 c-87 -28 -150 -128 -135 -215 24 -133 167 -206 285 -145 56
29 109 114 109 175 0 60 -53 146 -109 174 -42 22 -102 26 -150 11z m169 -185
c0 -19 -7 -20 -110 -20 -103 0 -110 1 -110 20 0 19 7 20 110 20 103 0 110 -1
110 -20z"/>
</g>
</svg>
